# xmcd
#
# Track frame offsets: 
#        150
#        16657
#        34538
#        46981
#        59085
#        76802
#        95073
#        107749
#        124881
#        139026
#        157471
#        175590
#        188547
#        212739
#        225056
#        241589
#        255127
#        269586
#        282890
#        298894
#        314233
#        330573
#
# Disc length: 4621 seconds
#
# Revision: 0
# Processed by: cddbd v1.5.2PL0 Copyright (c) Steve Scherf et al.
# Submitted via: ExactAudioCopy v0.99pb4
#
DISCID=33120b16
DTITLE=Various Artist - Viva Vlaanderen - Het Beste Van 2016 - CD 2
DYEAR=2016
DGENRE=Chanson
TTITLE0=K3 - 10.000 Luchtballonnen
TTITLE1=De Romeo's - Cabrio
TTITLE2=Maarten Cox - Als Ze Me Kust
TTITLE3=Lost Frequencies Feat. Sandro Cavazza - Beautiful Life
TTITLE4=Johannes Genard - Honeybee
TTITLE5=Belle Perez - Mujer Contra Mujer
TTITLE6=Sergio - Lekkere Jongen
TTITLE7=Lindsay - De Grootste Liefde
TTITLE8=Hooverphonic - Hiding In A Song
TTITLE9=Frank and Christel Galan - Jij Bent Er Maar Eénmaal Voor Mij
TTITLE10=Danny Fabry - Rocky
TTITLE11=Kate Ryan - Comment Te Dire Adieu
TTITLE12=Jan De Wilde - Wals Met Mathilda
TTITLE13=Lenny and De Wespen - Jij
TTITLE14=Lola - Free
TTITLE15=Elke Taelman - Bel Bel Bel
TTITLE16=Wim Leys - Cruisen Door De U.S.A
TTITLE17=Rudy Meyns - Een Tevreden Man
TTITLE18=Ivann - Ik Geloof In Jou
TTITLE19=Yvette Ravell - Kom Dans Met Mij
TTITLE20=Natalia - Anyone Out There
TTITLE21=Tourist LeMC Feat. Spiritually Wally - Horizon
EXTD=
EXTT0=
EXTT1=
EXTT2=
EXTT3=
EXTT4=
EXTT5=
EXTT6=
EXTT7=
EXTT8=
EXTT9=
EXTT10=
EXTT11=
EXTT12=
EXTT13=
EXTT14=
EXTT15=
EXTT16=
EXTT17=
EXTT18=
EXTT19=
EXTT20=
EXTT21=
PLAYORDER=
